Coordinates
nRows=15
nColumns=24

# SIMM Motion File Header:
name Coordinates
datacolumns 24
datarows 15
otherdata 1
range 1.09332999999999990000 1.10732999999999990000
endheader
time	pelvis_tx	pelvis_ty	pelvis_tz	pelvis_tilt	pelvis_list	pelvis_rotation	hip_flexion_r	hip_adduction_r	hip_rotation_r	knee_angle_r	ankle_angle_r	subtalar_angle_r	mtp_angle_r	hip_flexion_l	hip_adduction_l	hip_rotation_l	knee_angle_l	ankle_angle_l	subtalar_angle_l	mtp_angle_l	lumbar_extension	lumbar_bending	lumbar_rotation
      1.09332999999999990000	      1.22287360075266170000	      0.80370654640553818000	     -0.22832538450591830000	     -2.44392650848265180000	     -2.14105998002654550000	      7.04564954519350200000	     13.67220487368911300000	      2.96142628666733510000	      0.71561609580014207000	     -4.77187452752303720000	     -5.97883814017892320000	     -0.00000000000007592742	      0.00000000000040590070	     -0.83633139741095075000	     -7.12940574441237280000	     -5.98433890072043790000	    -37.77112885869231500000	    -15.37480403446612200000	      0.00000000000004543111	     -0.00000000000077054280	      1.18219423951900220000	      3.99092033885837120000	     -3.25408798510663640000
      1.09433000000000000000	      1.22344910914755590000	      0.80376043253371088000	     -0.22816314742183377000	     -2.43006937973955490000	     -2.14489716300416640000	      7.02627939301688900000	     13.60725733015412200000	      2.98673699765202500000	      0.75155578641322685000	     -4.75893431552272880000	     -5.94351277516457180000	     -0.00000000000007608963	      0.00000000000040789973	     -0.71508278588105789000	     -7.14679571285372720000	     -5.98905423578992480000	    -38.00154018999500500000	    -15.40526973008621800000	      0.00000000000004548055	     -0.00000000000077202109	      1.15679049409022540000	      4.00016471341707100000	     -3.22592443154709900000
      1.09532999999999990000	      1.22402461754245010000	      0.80381431866188358000	     -0.22800091033774927000	     -2.41621225099646300000	     -2.14873434598178690000	      7.00690924084027870000	     13.54230978661915000000	      3.01204770863670880000	      0.78749547702630029000	     -4.74599410352242490000	     -5.90818741015022740000	     -0.00000000000007625184	      0.00000000000040989877	     -0.59383417435119012000	     -7.16418568129507620000	     -5.99376957085941340000	    -38.23195152129763800000	    -15.43573542570628700000	      0.00000000000004552999	     -0.00000000000077349937	      1.13138674866145570000	      4.00940908797576780000	     -3.19776087798756550000
      1.09633000000000000000	      1.22459829266944520000	      0.80386669397416344000	     -0.22783902540602149000	     -2.40299623069469750000	     -2.15260534217653280000	      6.98731700187904980000	     13.47827412320966400000	      3.03729252004865290000	      0.82234224919377330000	     -4.73319141297399870000	     -5.87288344415866260000	     -0.00000000000007642756	      0.00000000000041186228	     -0.47184419171616820000	     -7.18120980856571300000	     -5.99886229243059700000	    -38.46135551708153600000	    -15.46217555148935600000	      0.00000000000004558557	     -0.00000000000077498316	      1.10659215813379870000	      4.01850969678850770000	     -3.16924798644574060000
      1.09732999999999990000	      1.22517013452854110000	      0.80391755847055058000	     -0.22767749262665055000	     -2.39042131883427130000	     -2.15651015158840220000	      6.96750267613320770000	     13.41515033992570600000	      3.06247143188784450000	      0.85609610291561755000	     -4.72052624387746000000	     -5.83760087718989510000	     -0.00000000000007661681	      0.00000000000041379028	     -0.34911283797603732000	     -7.19786809466562620000	     -6.00433240050347820000	    -38.68975217734657000000	    -15.48459010743536300000	      0.00000000000004564728	     -0.00000000000077647245	      1.08240672250727310000	      4.02746653985528450000	     -3.14038575692163270000
      1.09833000000000000000	      1.22574106065219190000	      0.80396771966929603000	     -0.22751619071526286000	     -2.37816608570552380000	     -2.16043535632655770000	      6.94763882875539980000	     13.35245484389743500000	      3.08761379175445370000	      0.88919616725231043000	     -4.70787461712486000000	     -5.80236633145649790000	     -0.00000000000007681061	      0.00000000000041573454	     -0.22600410131601648000	     -7.21433956099626170000	     -6.00990053188602410000	    -38.91760149273134300000	    -15.50484975178668500000	      0.00000000000004571294	     -0.00000000000077796673	      1.05852996996400090000	      4.03634471596171540000	     -3.11139917243603260000
      1.09932999999999990000	      1.22630923956950720000	      0.80401577097511634000	     -0.22735558140782516000	     -2.36686988877182450000	     -2.16442174704356870000	      6.92762641648171230000	     13.29104420963628800000	      3.11264649570329380000	      0.92033486343351556000	     -4.69526361740409200000	     -5.76727584942924580000	     -0.00000000000007701806	      0.00000000000041772763	     -0.10176321589643277000	     -7.23025056801904680000	     -6.01576273319755920000	    -39.14380877347510800000	    -15.51864466135393200000	      0.00000000000004579045	     -0.00000000000077947596	      1.03557926667051260000	      4.04498689118710340000	     -3.08203952306598210000
      1.10033000000000000000	      1.22687741848682250000	      0.80406382228093654000	     -0.22719497210038742000	     -2.35557369183812250000	     -2.16840813776058060000	      6.90761400420801940000	     13.22963357537512700000	      3.13767919965213920000	      0.95147355961472768000	     -4.68265261768332140000	     -5.73218536740198650000	     -0.00000000000007722552	      0.00000000000041972071	      0.02247766952317855100	     -7.24616157504183620000	     -6.02162493450909510000	    -39.37001605421892200000	    -15.53243957092117900000	      0.00000000000004586796	     -0.00000000000078098519	      1.01262856337701910000	      4.05362906641249410000	     -3.05267987369592530000
      1.10132999999999990000	      1.22744283469856130000	      0.80411019508356252000	     -0.22703503366248029000	     -2.34496886462393480000	     -2.17231226196750260000	      6.88741544373283700000	     13.16912817664474700000	      3.16250603873293200000	      0.98053943740549310000	     -4.66989972269936880000	     -5.69748913063901250000	     -0.00000000000007745150	      0.00000000000042172433	      0.14738967044231749000	     -7.26133127286697460000	     -6.02785444194191470000	    -39.59422868577118500000	    -15.53748196095690500000	      0.00000000000004595548	     -0.00000000000078247907	      0.99026780125566494000	      4.06187244138696180000	     -3.02284168856309240000
      1.10233000000000000000	      1.22800733000844150000	      0.80415600838512369000	     -0.22687531884775000000	     -2.33459449398291640000	     -2.17618896400439610000	      6.86715483385715150000	     13.10892452309128200000	      3.18726425619104740000	      1.00891437573278030000	     -4.65709952929435110000	     -5.66292430896412480000	     -0.00000000000007768366	      0.00000000000042373146	      0.27252537652800407000	     -7.27625386762623180000	     -6.03420638474849720000	    -39.81777643425965600000	    -15.53960684448210500000	      0.00000000000004604633	     -0.00000000000078396783	      0.96810368619168508000	      4.06998288294445750000	     -2.99284399150932460000
      1.10332999999999990000	      1.22857097411034100000	      0.80420152235441644000	     -0.22671577940323956000	     -2.32427934667407900000	     -2.17998051316450780000	      6.84679434462482740000	     13.04879887956062100000	      3.21192835220056770000	      1.03663818903551900000	     -4.64418636647906170000	     -5.62859375121105640000	     -0.00000000000007789647	      0.00000000000042570811	      0.39761019010727333000	     -7.29088000557473670000	     -6.04075197617921320000	    -40.04053834909748800000	    -15.53806574175805000000	      0.00000000000004614170	     -0.00000000000078546006	      0.94593122720626555000	      4.07791024649771570000	     -2.96262624254221810000
      1.10433000000000000000	      1.22913206458829930000	      0.80424613832690417000	     -0.22655676606938860000	     -2.31414186936177700000	     -2.18351660369427590000	      6.82613421732256680000	     12.98890726609832800000	      3.23631008386432040000	      1.06240862726461450000	     -4.63093429543293760000	     -5.59496598522342130000	     -0.00000000000007805122	      0.00000000000042759334	      0.52254232616739993000	     -7.30461677309098260000	     -6.04787851348234100000	    -40.26094276298353900000	    -15.52552668028610800000	      0.00000000000004625059	     -0.00000000000078696268	      0.92373373645650736000	      4.08528837603825860000	     -2.93174833783506110000
      1.10532999999999990000	      1.22969315506625730000	      0.80429075429939179000	     -0.22639775273553767000	     -2.30400439204947680000	     -2.18705269422404310000	      6.80547409002031060000	     12.92901565263605000000	      3.26069181552806770000	      1.08817906549370420000	     -4.61768222438681700000	     -5.56133821923579320000	     -0.00000000000007820596	      0.00000000000042947856	      0.64747446222749871000	     -7.31835354060722490000	     -6.05500505078546780000	    -40.48134717686954100000	    -15.51298761881416700000	      0.00000000000004635949	     -0.00000000000078846530	      0.90153624570675417000	      4.09266650557880050000	     -2.90087043312791120000
      1.10633000000000000000	      1.23025200865612680000	      0.80433516047440023000	     -0.22623909660494645000	     -2.29364127723878970000	     -2.19025624024414260000	      6.78443177937357510000	     12.86884874801377700000	      3.28479979532661700000	      1.11223042005604360000	     -4.60400443869901820000	     -5.52854378449846800000	     -0.00000000000007836058	      0.00000000000043137964	      0.77162756988560488000	     -7.33119886644576010000	     -6.06286644675482120000	    -40.69910145745848200000	    -15.48990384814443100000	      0.00000000000004647851	     -0.00000000000078999750	      0.87885539665399259000	      4.09945421572115000000	     -2.86921594401507820000
      1.10732999999999990000	      1.23081011661663340000	      0.80437949671691567000	     -0.22608055954210854000	     -2.28320294992864210000	     -2.19334893809435050000	      6.76326207427868550000	     12.80859007967152200000	      3.30881652450342490000	      1.13570874672944980000	     -4.59018474813066210000	     -5.49602712684459060000	     -0.00000000000007851515	      0.00000000000043328601	      0.89552100140967261000	     -7.34374704505838500000	     -6.07097279561291980000	    -40.91597236028165700000	    -15.46330517440871700000	      0.00000000000004660089	     -0.00000000000079153955	      0.85601342816689907000	      4.10604511939742970000	     -2.83730259343368950000
